PathFileType	4	(X/Y/Z)	C:/Users/beibeiliu/ov580/test_trc\sequence.11_training_dense_left.trc
DataRate	CameraRate	NumFrames	NumMarkers	Units	OrigDataRate	OrigDataStartFrame	OrigNumFrames
120	120	11	19	mm	120	100	398
Frame#	Time	ThumbCMC			ThumbMCP			ThumbIP			ThumbTip			IndexMCP			IndexPIP			IndexTip			MiddleMCP			MiddlePIP			MiddleTip			RingMCP			RingPIP			RingTip			PinkyMCP			PinkyPIP			PinkyTip			BackHand1			BackHand2			BackHand3	
		X0	Y0	Z0	X1	Y1	Z1	X2	Y2	Z2	X3	Y3	Z3	X4	Y4	Z4	X5	Y5	Z5	X6	Y6	Z6	X7	Y7	Z7	X8	Y8	Z8	X9	Y9	Z9	X10	Y10	Z10	X11	Y11	Z11	X12	Y12	Z12	X13	Y13	Z13	X14	Y14	Z14	X15	Y15	Z15	X16	Y16	Z16	X17	Y17	Z17	X18	Y18	Z18	
99	0.825	-125.67	-17.6021	19.3343	-121.74	-36.9166	-7.35459	-131.802	-40.1254	-29.4697	-155.263	-35.0066	-40.644	-114.393	5.06981	-39.0364	-106.526	4.88421	-57.3641	-98.196	4.61411	-80.5226	-139.185	16.1798	-44.2832	-134.303	19.7885	-69.1019	-132.662	27.62	-93.5001	-160.319	14.3961	-45.6057	-158.515	13.0594	-65.3362	-157.469	11.5289	-86.1503	-175.86	4.94418	-33.958	-177.481	-16.3503	-47.7409	-169.707	-34.8964	-32.9852	-159.895	20.3122	2.56818	-161.03	18.3507	26.9966	-135.224	13.9351	19.176	
100	0.833333	-125.787	-20.7957	24.2143	-119.715	-40.0837	-7.36405	-130.823	-41.4501	-28.3598	-154.011	-36.9849	-42.6326	-113.304	1.84501	-37.1699	-107.196	2.50893	-57.3591	-98.7762	5.6853	-81.802	-137.991	15.7789	-48.7555	-135.249	18.9354	-67.1201	-131.577	26.4024	-92.1593	-157.709	12.8821	-42.093	-157.616	12.0472	-63.6806	-159.521	13.7691	-86.9915	-179.899	2.96149	-35.3759	-176.689	-18.2561	-47.1808	-169.454	-37.671	-31.6188	-157.693	18.4717	1.46466	-157.787	15.8234	30.6487	-131.254	8.95635	16.9708	
101	0.841667	-121.483	-23.6887	18.9081	-121.384	-40.6193	-4.96399	-132.337	-40.5303	-27.5121	-152.952	-36.7219	-41.033	-111.012	-0.601485	-37.4579	-104.309	0.039233	-56.2291	-97.1477	7.07502	-81.4637	-135.644	11.8471	-44.166	-134.607	18.4064	-69.7276	-134.242	26.9149	-88.7293	-155.218	11.6819	-43.0902	-158.974	12.6447	-66.8386	-158.812	13.4369	-85.0941	-177.137	1.93398	-35.1861	-174.885	-18.659	-46.5276	-169.868	-39.7373	-28.5003	-154.037	16.7147	2.7256	-156.945	14.4795	25.9696	-127.104	8.21508	13.9474	
102	0.85	-118.781	-27.9252	19.2665	-118.534	-44.4741	-9.23412	-130.929	-44.3382	-28.8114	-153.073	-38.2144	-41.0337	-105.566	-2.71999	-38.4913	-99.5824	-0.874227	-56.7774	-94.9906	4.96986	-75.9809	-133.711	12.1686	-45.4824	-127.083	16.3225	-65.8511	-128.524	27.2791	-86.8086	-155.226	9.89671	-41.6487	-153.594	10.646	-65.583	-156.768	13.5577	-84.8234	-171.338	0.0344802	-33.2485	-170.919	-22.736	-45.7771	-169.094	-41.3373	-27.7574	-152.308	13.6214	2.02956	-150.404	10.6275	26.7825	-127.253	5.55834	14.4149	
103	0.858333	-121.25	-31.6718	19.9181	-118.735	-48.279	-6.19867	-129.241	-50.0404	-29.8164	-152.378	-40.5981	-42.1751	-106.016	-5.03985	-36.0234	-97.9599	-1.85649	-56.1161	-88.7427	3.62313	-75.6119	-129.324	8.56189	-43.1874	-126.266	16.2677	-65.4487	-123.815	24.7834	-82.4095	-148.614	6.84069	-41.2756	-149.526	8.60393	-62.8739	-152.293	11.6601	-85.4067	-168.711	-1.44494	-35.0889	-168.516	-23.8477	-46.8011	-165.012	-44.4013	-29.8474	-149.188	8.65092	2.46324	-148.791	7.00674	27.4312	-125.718	0.171767	15.7291	
104	0.866667	-120.367	-36.4776	23.5417	-119.122	-51.5722	-6.59505	-129.561	-53.6773	-29.7756	-153.43	-42.4135	-42.3979	-103.785	-9.8558	-34.2498	-96.973	-5.16683	-55.82	-88.247	2.71105	-74.7079	-129.603	4.82951	-41.6592	-124.606	11.9804	-61.8284	-121.248	24.2735	-84.6008	-149.165	4.7377	-42.8054	-148.303	5.52679	-59.7751	-149.202	8.12178	-83.3315	-167.36	-4.09636	-30.5294	-168.515	-24.0801	-47.4851	-167.328	-46.5806	-34.2895	-148.642	7.03882	3.78587	-151.125	5.69507	33.076	-122.888	-6.85379	19.5047	
105	0.875	-119.844	-38.6282	21.356	-119.132	-57.3198	-4.19772	-130.964	-54.2739	-26.9342	-148.456	-50.9052	-38.9244	-102.651	-16.4574	-33.0401	-99.1899	-11.3518	-51.6697	-85.5145	-3.06647	-71.5655	-124.708	-1.25171	-40.5981	-123.813	6.08819	-59.762	-119.945	18.5631	-81.3356	-148.231	-1.1642	-36.4122	-147.371	1.77676	-62.3845	-150.009	5.85196	-84.0839	-170.564	-7.46034	-31.7195	-171.829	-26.5444	-47.5745	-163.946	-47.3819	-36.1011	-144.579	0.404533	5.94192	-147.3	0.465231	33.281	-125.351	-8.54252	15.7797	
106	0.883333	-117.04	-44.7831	23.4707	-118.158	-64.2927	-2.94913	-131.353	-60.5948	-27.4075	-154.259	-51.5575	-39.1873	-103.321	-19.063	-36.0586	-96.9572	-15.4795	-52.9436	-88.4846	-8.81032	-70.8404	-128.158	-2.71771	-43.7116	-126.546	1.93936	-61.3881	-125.889	16.3194	-82.682	-149.29	-5.17094	-37.3601	-153.17	-3.04297	-59.5004	-155.073	-0.226054	-79.6322	-169.026	-12.5182	-34.6937	-175.961	-31.6826	-46.0899	-168.378	-54.5557	-29.8001	-148.49	-2.11202	3.56721	-149.068	-2.55424	33.6089	-122.255	-13.3081	19.195	
107	0.891667	-120.791	-45.7439	24.2472	-120.716	-63.2598	-6.14204	-132.114	-63.944	-25.0519	-153.732	-57.3905	-40.2756	-105.226	-23.5247	-33.1501	-99.8386	-19.5756	-53.2414	-92.1183	-12.7027	-72.4672	-131.084	-6.85229	-44.8677	-128.329	-1.12018	-64.7159	-129.138	9.36529	-81.4701	-153.396	-8.35634	-40.0849	-157.452	-5.84633	-59.0709	-155.188	-5.18797	-81.1185	-171.877	-15.0695	-33.5752	-175.023	-35.0271	-44.7847	-167.148	-55.2007	-29.6696	-150.706	-3.47501	3.57893	-150.104	-4.75041	32.3036	-123.008	-12.8599	17.1041	
108	0.9	-120.941	-46.9222	24.1907	-122.786	-63.846	-3.4752	-132.598	-67.5231	-25.5873	-152.901	-63.0888	-37.9385	-106.86	-25.8287	-34.4202	-100.908	-22.6588	-53.9073	-88.9483	-17.592	-73.681	-130.689	-10.1122	-45.7003	-130.898	-3.95951	-66.9278	-128.943	6.38327	-85.8926	-155.82	-10.6162	-43.4444	-158.835	-9.36534	-59.9078	-158.82	-9.04481	-82.3642	-175.246	-19.977	-33.3689	-178.653	-43.4756	-42.222	-167.553	-59.3005	-28.8148	-149.266	-6.13714	3.30348	-149.348	-4.97706	29.3979	-126.562	-16.0365	14.7331	
109	0.908333	-122.231	-47.0125	21.1979	-120.594	-68.7839	-3.88568	-134.625	-68.854	-23.9777	-156.531	-62.6444	-38.0641	-110.585	-26.5446	-37.6068	-103.664	-25.6165	-52.7981	-93.5711	-21.2184	-70.8829	-134.734	-13.9182	-41.8346	-133.145	-6.35496	-65.3237	-135.412	3.1892	-83.253	-156.464	-13.3259	-41.5353	-159.531	-12.8516	-63.7156	-162.187	-11.089	-79.6512	-178.634	-22.8092	-34.1294	-176.368	-46.1967	-42.1769	-170.483	-63.3028	-24.6262	-153.326	-8.25285	5.95152	-150.865	-5.92262	31.6651	-126.639	-16.3278	17.9049	
